<svg width="145.2" height="36.001" viewBox="0 0 145.2 36.001" xmlns="http://www.w3.org/2000/svg"><g id="svgGroup" stroke-linecap="round" fill-rule="evenodd" font-size="9pt" stroke="#000" stroke-width="0.25mm" fill="#000" style="stroke:#000;stroke-width:0.25mm;fill:#000"><path d="M 55.9 35.5 L 55.9 0.5 L 61.4 0.5 L 61.4 14.75 L 67.3 14.75 L 67.3 0.5 L 72.8 0.5 L 72.8 35.5 L 67.3 35.5 L 67.3 19.75 L 61.4 19.75 L 61.4 35.5 L 55.9 35.5 Z M 0 27.2 L 0 8.8 Q 0 4.55 2.1 2.275 A 6.75 6.75 0 0 1 5.365 0.347 Q 6.459 0.049 7.767 0.007 A 13.528 13.528 0 0 1 8.2 0 Q 11.358 0 13.331 1.418 A 6.384 6.384 0 0 1 14.3 2.275 Q 16.4 4.55 16.4 8.8 L 16.4 11.8 L 11.2 11.8 L 11.2 8.45 Q 11.2 5.378 8.94 5.042 A 4.009 4.009 0 0 0 8.35 5 Q 5.723 5 5.518 7.932 A 7.422 7.422 0 0 0 5.5 8.45 L 5.5 27.6 Q 5.5 31 8.35 31 A 3.395 3.395 0 0 0 9.564 30.801 Q 11.2 30.177 11.2 27.6 L 11.2 20.75 L 8.45 20.75 L 8.45 15.75 L 16.4 15.75 L 16.4 27.2 Q 16.4 31.45 14.3 33.725 A 6.75 6.75 0 0 1 11.035 35.653 Q 9.942 35.952 8.634 35.993 A 13.528 13.528 0 0 1 8.2 36 Q 5.043 36 3.069 34.583 A 6.384 6.384 0 0 1 2.1 33.725 Q 0 31.45 0 27.2 Z M 76.9 35.5 L 76.9 0.5 L 91.9 0.5 L 91.9 5.5 L 82.4 5.5 L 82.4 14.75 L 89.95 14.75 L 89.95 19.75 L 82.4 19.75 L 82.4 30.5 L 91.9 30.5 L 91.9 35.5 L 76.9 35.5 Z M 95.05 35.5 L 95.05 0.5 L 103.2 0.5 A 18.197 18.197 0 0 1 103.267 0.5 Q 105.856 0.51 107.585 1.259 A 5.703 5.703 0 0 1 109.4 2.475 Q 111.35 4.45 111.35 8.55 L 111.35 10.7 A 12.63 12.63 0 0 1 111.139 13.106 Q 110.882 14.429 110.31 15.403 A 5.088 5.088 0 0 1 107.75 17.6 L 107.75 17.7 A 4.613 4.613 0 0 1 109.367 18.538 A 4.315 4.315 0 0 1 110.575 20.15 A 8.216 8.216 0 0 1 111.078 21.714 Q 111.257 22.517 111.336 23.472 A 19.628 19.628 0 0 1 111.4 25.1 L 111.4 31.25 A 37.359 37.359 0 0 0 111.41 32.132 Q 111.431 33.01 111.496 33.634 A 10.937 10.937 0 0 0 111.5 33.675 A 6.067 6.067 0 0 0 111.976 35.444 A 6.787 6.787 0 0 0 112 35.5 L 106.4 35.5 A 9.076 9.076 0 0 1 106.138 34.625 A 6.972 6.972 0 0 1 106 33.9 Q 105.9 33.15 105.9 31.2 L 105.9 24.8 A 11.766 11.766 0 0 0 105.852 23.691 Q 105.746 22.578 105.409 21.898 A 2.366 2.366 0 0 0 105.125 21.45 Q 104.542 20.736 103.323 20.559 A 6.087 6.087 0 0 0 102.45 20.5 L 100.55 20.5 L 100.55 35.5 L 95.05 35.5 Z M 133.05 35.5 L 133.05 20.6 L 126.4 0.5 L 132.25 0.5 L 136 13.35 L 136.1 13.35 L 139.85 0.5 L 145.2 0.5 L 138.55 20.6 L 138.55 35.5 L 133.05 35.5 Z M 18.5 35.5 L 24.2 0.5 L 31.65 0.5 L 37.35 35.5 L 31.85 35.5 L 30.85 28.55 L 30.85 28.65 L 24.6 28.65 L 23.6 35.5 L 18.5 35.5 Z M 42 35.5 L 42 5.5 L 36.25 5.5 L 36.25 0.5 L 53.25 0.5 L 53.25 5.5 L 47.5 5.5 L 47.5 35.5 L 42 35.5 Z M 115.2 35.5 L 115.2 0.5 L 120.7 0.5 L 120.7 30.5 L 129.75 30.5 L 129.75 35.5 L 115.2 35.5 Z M 25.25 23.9 L 30.2 23.9 L 27.75 6.6 L 27.65 6.6 L 25.25 23.9 Z M 100.55 15.5 L 102.55 15.5 Q 103.679 15.5 104.422 15.103 A 2.44 2.44 0 0 0 105.025 14.65 A 2.451 2.451 0 0 0 105.536 13.831 Q 105.828 13.092 105.849 11.977 A 9.328 9.328 0 0 0 105.85 11.8 L 105.85 9.1 A 8.479 8.479 0 0 0 105.8 8.14 Q 105.666 6.968 105.175 6.35 A 2.119 2.119 0 0 0 104.101 5.641 Q 103.74 5.531 103.302 5.507 A 4.608 4.608 0 0 0 103.05 5.5 L 100.55 5.5 L 100.55 15.5 Z" vector-effect="non-scaling-stroke"/></g></svg>